Coordinates
version=1
nRows=13
nColumns=40
inDegrees=yes

Units are S.I. units (second, meters, Newtons, ...)
Angles are in degrees.

endheader
time	pelvis_tilt	pelvis_list	pelvis_rotation	pelvis_tx	pelvis_ty	pelvis_tz	hip_flexion_r	hip_adduction_r	hip_rotation_r	knee_angle_r	knee_angle_r_beta	ankle_angle_r	subtalar_angle_r	mtp_angle_r	hip_flexion_l	hip_adduction_l	hip_rotation_l	knee_angle_l	knee_angle_l_beta	ankle_angle_l	subtalar_angle_l	mtp_angle_l	lumbar_extension	lumbar_bending	lumbar_rotation	arm_flex_r	arm_add_r	arm_rot_r	elbow_flex_r	pro_sup_r	wrist_flex_r	wrist_dev_r	arm_flex_l	arm_add_l	arm_rot_l	elbow_flex_l	pro_sup_l	wrist_flex_l	wrist_dev_l
     45.51478571	     -5.55332985	     -5.23581269	     10.73296127	      0.98806330	      0.91350454	      0.48285740	      3.83058349	      4.57917992	    -13.38382844	     17.55417162	     17.55417162	     20.52465797	     -4.10997561	     -0.45536686	     31.26365000	     -5.91246953	      3.50076585	     20.62330774	     20.62330774	      1.26392582	     -6.64859965	     -1.92833781	     -8.64022712	      2.32911880	      2.21266400	     58.33708542	    -19.83564075	     -7.36593680	     84.43867566	     44.64926176	      0.00000000	      0.00000000	    -18.13188468	     -7.54111387	     13.49009568	     28.77135822	     43.49194135	      0.00000000	      0.00000000
     45.53457143	     -5.57696768	     -5.30133297	     10.82130236	      0.98867085	      0.91309481	      0.47902219	      3.34395566	      4.44581683	    -13.52153775	     17.52180482	     17.52180482	     20.62068415	     -3.92024415	     -0.46509394	     31.27106792	     -5.72088927	      3.75862716	     21.48162681	     21.48162681	      1.06847752	     -7.21153339	     -2.02614730	     -8.61980987	      2.23108670	      2.28322639	     58.70124999	    -19.76125401	     -7.42217332	     84.41230454	     44.65895541	      0.00000000	      0.00000000	    -17.37146753	     -7.73680229	     13.50144236	     28.93682696	     43.51755227	      0.00000000	      0.00000000
     45.55435714	     -5.63976320	     -5.37790152	     10.90376449	      0.98929584	      0.91287035	      0.47482237	      2.91876383	      4.23988324	    -13.89114846	     17.54084479	     17.54084479	     20.66704470	     -3.40934665	     -0.48616339	     31.30028218	     -5.42639294	      4.33385737	     22.32017843	     22.32017843	      1.04476347	     -8.21675309	     -1.84690514	     -8.51782346	      2.17803065	      2.44402141	     58.89574665	    -19.77140428	     -7.62156380	     84.00561640	     44.69594570	      0.00000000	      0.00000000	    -16.38331960	     -7.91961212	     13.60995754	     29.06057787	     43.56451163	      0.00000000	      0.00000000
     45.57414286	     -5.65721268	     -5.42569981	     10.91416967	      0.99000793	      0.91286368	      0.47047666	      2.47823356	      3.99284466	    -14.13420104	     17.64297338	     17.64297338	     20.68969538	     -2.95142634	     -0.51145503	     31.30311658	     -5.13568087	      4.83191609	     23.26137893	     23.26137893	      1.43201091	     -9.02659306	     -1.40330726	     -8.49651703	      2.12518944	      2.61106787	     59.02421340	    -19.74501834	     -7.77819835	     83.42173936	     44.74098866	      0.00000000	      0.00000000	    -15.36520306	     -8.13298776	     13.71027633	     29.23345050	     43.62632569	      0.00000000	      0.00000000
     45.59392857	     -5.65657545	     -5.54440461	     10.86818774	      0.99084040	      0.91297694	      0.46605223	      2.04189338	      3.82989426	    -14.29753579	     17.75090097	     17.75090097	     20.59879389	     -2.67787748	     -0.51734144	     31.30391668	     -4.96316027	      5.16150284	     24.22247463	     24.22247463	      1.95295267	     -9.69220003	     -1.31515367	     -8.49138265	      2.15875984	      2.79493730	     59.04636511	    -19.73000050	     -7.84159481	     82.93635345	     44.76619495	      0.00000000	      0.00000000	    -14.36839601	     -8.33868315	     13.67565291	     29.56057871	     43.66836026	      0.00000000	      0.00000000
     45.61371429	     -5.67352384	     -5.54588603	     10.75635311	      0.99176742	      0.91338459	      0.46139045	      1.61297282	      3.51925653	    -14.27716964	     17.89097723	     17.89097723	     20.44506396	     -2.48893092	     -0.50223968	     31.13708808	     -4.70059691	      5.35144170	     24.91416312	     24.91416312	      2.43261945	    -10.11363104	     -1.39807808	     -8.47135187	      2.14605445	      2.92277185	     58.75762199	    -19.46862569	     -7.75528772	     82.56860961	     44.77616028	      0.00000000	      0.00000000	    -13.30465417	     -8.60924118	     13.60360767	     29.90920258	     43.70136151	      0.00000000	      0.00000000
     45.63350000	     -5.71087645	     -5.58903874	     10.58558219	      0.99259149	      0.91373281	      0.45657518	      1.30855665	      3.08183903	    -14.83811665	     18.24687189	     18.24687189	     20.34497087	     -1.30209651	     -0.93280541	     31.15369885	     -4.37953197	      5.80258397	     25.99329357	     25.99329357	      4.04846928	    -10.77508726	      1.12535852	     -8.36046727	      2.11897752	      2.98735401	     59.02521025	    -19.21726054	     -8.08000030	     80.21600722	     44.89870864	      0.00000000	      0.00000000	    -12.52925892	     -8.88617568	     13.56188210	     30.59969668	     43.83331384	      0.00000000	      0.00000000
     45.65328571	     -5.77726692	     -5.67630664	     10.33586189	      0.99360521	      0.91431607	      0.45189574	      1.01704485	      2.82461234	    -14.77447415	     18.46975968	     18.46975968	     20.00151519	     -1.20174003	     -0.86965221	     30.87079673	     -4.26201899	      5.83375609	     26.39227658	     26.39227658	      4.70514094	    -11.09457569	      0.89091042	     -8.30010693	      2.19409466	      3.07161765	     58.64723837	    -18.94170734	     -7.96424988	     79.96955607	     44.90208360	      0.00000000	      0.00000000	    -11.68281606	     -9.11931243	     13.48550355	     30.89297536	     43.85969494	      0.00000000	      0.00000000
     45.67307143	     -5.65456626	     -5.75082364	     10.02732310	      0.99465913	      0.91482849	      0.44708896	      0.76040526	      2.44373381	    -14.81898498	     19.21065052	     19.21065052	     19.88076715	     -0.70822363	     -1.19795766	     30.64520255	     -4.16173810	      5.80529259	     27.32609860	     27.32609860	      5.49647895	    -11.64112831	      0.97060406	     -8.31422351	      2.29441393	      3.65269358	     58.20178067	    -19.25308266	     -8.18594982	     78.58035788	     44.95856715	      0.00000000	      0.00000000	    -10.66319162	     -9.47110553	     13.28573786	     31.53496634	     43.91949729	      0.00000000	      0.00000000
     45.69285714	     -5.73760138	     -5.75495560	      9.65586498	      0.99553118	      0.91541592	      0.44230767	      0.83010197	      1.87562233	    -14.99970404	     20.11722798	     20.11722798	     19.55073028	     -0.08522136	     -1.89108654	     30.33240901	     -4.01181876	      5.59793044	     27.72569721	     27.72569721	      6.41833817	    -11.80167307	      1.65300624	     -8.12553482	      2.28203150	      3.93920988	     57.84543034	    -19.08492379	     -8.41135548	     76.63118239	     45.03801272	      0.00000000	      0.00000000	     -9.75655477	     -9.85682092	     13.06794096	     32.34682240	     43.99800989	      0.00000000	      0.00000000
     45.71264286	     -5.68161919	     -5.76572996	      9.29353824	      0.99651639	      0.91613976	      0.43754538	      0.76583007	      1.38069394	    -14.94745013	     20.97648035	     20.97648035	     18.71902754	      0.03423750	     -3.74008991	     29.94043994	     -3.90685001	      5.34055228	     28.30024103	     28.30024103	      7.89044889	    -11.63430534	      3.29641495	     -8.07074189	      2.32357356	      3.46578586	     57.93338421	    -17.91041450	     -8.51419965	     73.99000879	     45.15253017	      0.00000000	      0.00000000	     -9.41503622	    -10.26857837	     12.70439903	     33.37608586	     44.16496079	      0.00000000	      0.00000000
     45.73242857	     -5.56340335	     -5.98761562	      8.91120012	      0.99755434	      0.91719975	      0.43297121	      0.67767320	      1.16919141	    -14.77302056	     21.80826320	     21.80826320	     18.11749958	      0.10498344	     -3.79215629	     29.31482113	     -4.03623567	      5.20327504	     28.44648353	     28.44648353	      8.52465480	    -11.87174923	      3.10043962	     -8.18009129	      2.56889121	      3.40327890	     57.07714226	    -17.54840587	     -8.37001320	     73.62973761	     45.15609841	      0.00000000	      0.00000000	     -8.53133624	    -10.60046355	     12.60005227	     33.64087432	     44.19395588	      0.00000000	      0.00000000
     45.75221429	     -5.55648800	     -5.71324470	      8.40775222	      0.99816803	      0.91771811	      0.42825929	      1.48620790	      0.14124282	    -14.36845965	     24.28518591	     24.28518591	     17.78114760	     -0.25659830	     -4.84259337	     28.74817231	     -3.75745351	      4.45800821	     28.64303210	     28.64303210	      9.08657213	    -11.72671306	      2.94237487	     -8.08021152	      2.31873486	      3.72644762	     56.12768343	    -17.60355611	     -8.46339250	     72.38620050	     45.19956735	      0.00000000	      0.00000000	     -7.47156741	    -11.00263263	     12.41482665	     33.98288420	     44.24767317	      0.00000000	      0.00000000
